<svg height="512pt" viewBox="0 0 512 512" width="512pt" xmlns="http://www.w3.org/2000/svg"><path d="m258.03125 406.070312h253.96875v-294.25h-512v294.25h103.195312" fill="#285680"/><path d="m383.648438 164.546875c-3.339844-3.574219-8-5.617187-12.890626-5.648437h-229.515624c-9.738282.027343-17.625 7.914062-17.65625 17.652343v141.242188c.03125 9.738281 7.917968 17.625 17.65625 17.65625h229.515624c9.738282-.03125 17.625-7.917969 17.65625-17.65625v-141.242188c.042969-4.46875-1.667968-8.78125-4.765624-12.003906zm0 0" fill="#71c285"/><path d="m282.484375 512h192.492187c20.449219 0 37.023438-16.574219 37.023438-37.023438v-93.679687c0-.945313-.765625-1.710937-1.710938-1.710937h-510.289062v95.390624c0 20.449219 16.574219 37.023438 37.023438 37.023438h254.285156" fill="#4482c3"/><path d="m273.65625 441.378906-8.828125-35.308594-7.152344-28.601562c-.972656-3.9375-4.503906-6.707031-8.5625-6.710938h-136.828125c-3.78125.027344-7.136718 2.429688-8.382812 6.003907l-9.800782 29.308593-11.738281 35.308594-11.742187 35.3125v35.308594h211.863281v-35.308594zm0 0" fill="#95a5a5"/><path d="m35.308594 0h441.382812c19.5 0 35.308594 15.808594 35.308594 35.308594v88.277344h-512v-88.277344c0-19.5 15.808594-35.308594 35.308594-35.308594zm0 0" fill="#4482c3"/><path d="m364.578125 158.898438c-112.257813 8.824218-223.335937 83.859374-240.992187 156.597656v-138.945313c.03125-9.738281 7.917968-17.625 17.65625-17.652343zm0 0" fill="#7ed09e"/><path d="m211.863281 97.101562c-3.363281.019532-6.441406-1.871093-7.945312-4.878906l-18.539063-37.175781-18.539062 37.175781c-1.410156 2.820313-4.214844 4.679688-7.367188 4.867188-3.148437.191406-6.160156-1.3125-7.898437-3.945313-1.742188-2.632812-1.945313-5.992187-.535157-8.816406l26.484376-52.964844c1.660156-2.78125 4.660156-4.488281 7.898437-4.488281 3.242187 0 6.242187 1.707031 7.902344 4.488281l26.484375 52.964844c1.371094 2.746094 1.21875 6.003906-.402344 8.609375s-4.476562 4.183594-7.542969 4.164062zm0 0" fill="#285680"/><path d="m247.171875 97.101562c-4.875 0-8.828125-3.949218-8.828125-8.824218v-52.96875c0-4.875 3.953125-8.824219 8.828125-8.824219s8.828125 3.949219 8.828125 8.824219v52.96875c0 4.875-3.953125 8.824218-8.828125 8.824218zm0 0" fill="#285680"/><path d="m273.65625 44.136719h-52.964844c-4.878906 0-8.828125-3.949219-8.828125-8.828125 0-4.875 3.949219-8.824219 8.828125-8.824219h52.964844c4.875 0 8.828125 3.949219 8.828125 8.824219 0 4.878906-3.953125 8.828125-8.828125 8.828125zm0 0" fill="#285680"/><path d="m353.101562 97.101562c-4.875 0-8.824218-3.949218-8.824218-8.824218v-31.65625l-11.414063 11.414062c-3.449219 3.445313-9.035156 3.445313-12.484375 0l-11.414062-11.414062v31.65625c0 4.875-3.953125 8.824218-8.828125 8.824218s-8.828125-3.949218-8.828125-8.824218v-52.96875c.003906-3.566406 2.152344-6.785156 5.453125-8.152344 3.296875-1.367188 7.09375-.609375 9.617187 1.914062l20.242188 20.242188 20.242187-20.242188c2.523438-2.523437 6.320313-3.28125 9.617188-1.914062 3.300781 1.367188 5.449219 4.585938 5.449219 8.152344v52.96875c0 4.875-3.949219 8.824218-8.828126 8.824218zm0 0" fill="#285680"/><path d="m203.035156 88.277344h-35.3125c-4.875 0-8.824218-3.953125-8.824218-8.828125s3.949218-8.828125 8.824218-8.828125h35.3125c4.875 0 8.828125 3.953125 8.828125 8.828125s-3.953125 8.828125-8.828125 8.828125zm0 0" fill="#285680"/><g fill="#bdc3c7"><path d="m52.964844 158.898438h17.65625c9.75 0 17.65625 7.902343 17.65625 17.652343s-7.90625 17.65625-17.65625 17.65625h-17.65625c-9.75 0-17.65625-7.90625-17.65625-17.65625s7.90625-17.652343 17.65625-17.652343zm0 0"/><path d="m52.964844 229.515625h17.65625c9.75 0 17.65625 7.90625 17.65625 17.65625s-7.90625 17.65625-17.65625 17.65625h-17.65625c-9.75 0-17.65625-7.90625-17.65625-17.65625s7.90625-17.65625 17.65625-17.65625zm0 0"/><path d="m52.964844 300.136719h17.65625c9.75 0 17.65625 7.90625 17.65625 17.65625s-7.90625 17.65625-17.65625 17.65625h-17.65625c-9.75 0-17.65625-7.90625-17.65625-17.65625s7.90625-17.65625 17.65625-17.65625zm0 0"/><path d="m441.378906 158.898438h17.65625c9.75 0 17.65625 7.902343 17.65625 17.652343s-7.90625 17.65625-17.65625 17.65625h-17.65625c-9.75 0-17.65625-7.90625-17.65625-17.65625s7.90625-17.652343 17.65625-17.652343zm0 0"/><path d="m441.378906 229.515625h17.65625c9.75 0 17.65625 7.90625 17.65625 17.65625s-7.90625 17.65625-17.65625 17.65625h-17.65625c-9.75 0-17.65625-7.90625-17.65625-17.65625s7.90625-17.65625 17.65625-17.65625zm0 0"/><path d="m441.378906 300.136719h17.65625c9.75 0 17.65625 7.90625 17.65625 17.65625s-7.90625 17.65625-17.65625 17.65625h-17.65625c-9.75 0-17.65625-7.90625-17.65625-17.65625s7.90625-17.65625 17.65625-17.65625zm0 0"/></g><path d="m44.136719 35.308594c0 4.878906-3.949219 8.828125-8.828125 8.828125-4.875 0-8.824219-3.949219-8.824219-8.828125 0-4.875 3.949219-8.824219 8.824219-8.824219 4.878906 0 8.828125 3.949219 8.828125 8.824219zm0 0" fill="#9fc9d3"/><path d="m123.585938 44.136719h-52.964844c-4.875 0-8.828125-3.949219-8.828125-8.828125 0-4.875 3.953125-8.824219 8.828125-8.824219h52.964844c4.875 0 8.828124 3.949219 8.828124 8.824219 0 4.878906-3.953124 8.828125-8.828124 8.828125zm0 0" fill="#9fc9d3"/><path d="m335.449219 450.207031h-17.65625c-4.875 0-8.828125-3.953125-8.828125-8.828125v-17.65625c0-4.875 3.953125-8.824218 8.828125-8.824218h150.070312c4.875 0 8.828125 3.949218 8.828125 8.824218v17.65625c0 4.875-3.953125 8.828125-8.828125 8.828125zm0 0" fill="#2c3e50"/><path d="m205.949219 406.070312h-52.878907l5.828126-35.3125h44.136718zm0 0" fill="#bdc3c7"/><path d="m273.65625 441.378906h-64.796875l-2.910156-35.308594h58.878906zm0 0" fill="#bdc3c7"/><path d="m153.070312 406.070312-5.828124 35.308594h-64.878907l11.738281-35.308594zm0 0" fill="#bdc3c7"/><path d="m211.773438 476.691406h-70.355469l5.824219-35.3125h61.617187zm0 0" fill="#bdc3c7"/><path d="m70.621094 476.691406h70.621094v35.308594h-70.621094zm0 0" fill="#7f8c8d"/><path d="m453.578125 476.691406h-102.398437c-4.050782 0-7.578126-2.757812-8.5625-6.683594l-4.414063-17.65625c-.660156-2.636718-.070313-5.429687 1.601563-7.570312 1.667968-2.144531 4.234374-3.398438 6.953124-3.402344h97.984376c3.34375.003906 6.398437 1.890625 7.890624 4.882813l8.828126 17.65625c1.367187 2.734375 1.222656 5.980469-.382813 8.582031-1.605469 2.597656-4.441406 4.183594-7.5 4.191406zm0 0" fill="#a5a5a4"/><path d="m256 256c-19.5 0-35.308594-15.808594-35.308594-35.308594 0-19.503906 15.808594-35.3125 35.308594-35.3125s35.308594 15.808594 35.308594 35.3125c0 4.875-3.949219 8.824219-8.824219 8.824219-4.878906 0-8.828125-3.949219-8.828125-8.824219 0-9.753906-7.90625-17.65625-17.65625-17.65625s-17.65625 7.902344-17.65625 17.65625c0 9.75 7.90625 17.652344 17.65625 17.652344 4.875 0 8.828125 3.953125 8.828125 8.828125s-3.953125 8.828125-8.828125 8.828125zm0 0" fill="#24ae5f"/><path d="m256 308.964844c-19.5 0-35.308594-15.808594-35.308594-35.308594 0-4.875 3.949219-8.828125 8.824219-8.828125 4.878906 0 8.828125 3.953125 8.828125 8.828125 0 9.75 7.90625 17.652344 17.65625 17.652344s17.65625-7.902344 17.65625-17.652344-7.90625-17.65625-17.65625-17.65625c-4.875 0-8.828125-3.953125-8.828125-8.828125s3.953125-8.828125 8.828125-8.828125c19.5 0 35.308594 15.808594 35.308594 35.3125 0 19.5-15.808594 35.308594-35.308594 35.308594zm0 0" fill="#24ae5f"/><path d="m256 317.792969c-4.875 0-8.828125-3.953125-8.828125-8.828125v-123.585938c0-4.875 3.953125-8.828125 8.828125-8.828125s8.828125 3.953125 8.828125 8.828125v123.585938c0 4.875-3.953125 8.828125-8.828125 8.828125zm0 0" fill="#24ae5f"/><path d="m158.898438 211.863281c-3.570313-.003906-6.789063-2.152343-8.15625-5.449219-1.367188-3.300781-.609376-7.097656 1.914062-9.621093l8.828125-8.828125c3.460937-3.34375 8.96875-3.296875 12.375.109375 3.402344 3.402343 3.453125 8.910156.105469 12.375l-8.828125 8.828125c-1.652344 1.652344-3.898438 2.585937-6.238281 2.585937zm0 0" fill="#bbd1b5"/><path d="m158.898438 256c-3.570313 0-6.789063-2.152344-8.15625-5.449219-1.367188-3.296875-.609376-7.09375 1.914062-9.621093l44.136719-44.136719c3.464843-3.34375 8.96875-3.296875 12.375.109375 3.40625 3.402344 3.453125 8.910156.109375 12.375l-44.140625 44.136718c-1.652344 1.65625-3.898438 2.585938-6.238281 2.585938zm0 0" fill="#bbd1b5"/><path d="m282.484375 476.691406v35.308594h-70.621094l-.089843-35.308594zm0 0" fill="#7f8c8d"/></svg>